<svg width="24" height="24" viewBox="0 0 24 24" fill="none" xmlns="http://www.w3.org/2000/svg">
  <path d="M9 12l2 2 4-4" stroke="#8B5CF6" stroke-width="2" stroke-linecap="round" stroke-linejoin="round"/>
  <path d="M21 12c-1 0-2-1-2-2s1-2 2-2 2 1 2 2-1 2-2 2z" stroke="#8B5CF6" stroke-width="2"/>
  <path d="M3 12c1 0 2-1 2-2s-1-2-2-2-2 1-2 2 1 2 2 2z" stroke="#8B5CF6" stroke-width="2"/>
  <path d="M12 3c0 1-1 2-2 2s-2-1-2-2 1-2 2-2 2 1 2 2z" stroke="#8B5CF6" stroke-width="2"/>
  <path d="M12 21c0-1 1-2 2-2s2 1 2 2-1 2-2 2-2-1-2-2z" stroke="#8B5CF6" stroke-width="2"/>
</svg> 